<?xml version="1.0" encoding="iso-8859-1"?>
<!-- Generator: Adobe Illustrator 19.0.0, SVG Export Plug-In . SVG Version: 6.00 Build 0)  -->
<svg version="1.1" id="Capa_1" xmlns="http://www.w3.org/2000/svg" xmlns:xlink="http://www.w3.org/1999/xlink" x="0px" y="0px"
	 viewBox="0 0 372 372" style="enable-background:new 0 0 372 372;" xml:space="preserve">
<g>
	<path style="fill:#F4A23F;" d="M105.753,57.6l3.2-10.4c3.2-11.2,8-23.2,12.8-33.6l2.4-4.8h37.6l-1.6,9.6
		c-0.8,6.4-2.4,17.6-4.8,32.8l-0.8,7.2L105.753,57.6z"/>
	<path style="fill:#F4A23F;" d="M60.953,57.6l5.6-11.2c5.6-12,12.8-23.2,20-34.4l3.2-3.2h34.4l-4.8,11.2c-2.4,6.4-7.2,17.6-11.2,32
		l-2.4,5.6H60.953z"/>
</g>
<polygon style="fill:#FBCF4C;" points="34.553,92 51.353,57.6 320.153,57.6 336.953,92 "/>
<g>
	<path style="fill:#F4A23F;" d="M151.353,266.4l-0.8-7.2c-3.2-53.6-3.2-106.4,0.8-160l0.8-7.2h67.2l0.8,7.2
		c1.6,22.4,2.4,45.6,2.4,68.8v6.4l-5.6,1.6c-11.2,3.2-17.6,14.4-14.4,25.6c1.6,7.2,7.2,12,14.4,14.4l5.6,1.6v6.4c0,12-0.8,24-1.6,36
		l-0.8,6.4H151.353z"/>
	<path style="fill:#F4A23F;" d="M220.153,266.4l0.8-8c0.8-12,1.6-23.2,1.6-34.4v-6.4l5.6-1.6c11.2-3.2,17.6-14.4,14.4-25.6
		c-1.6-6.4-7.2-12-13.6-14.4l-5.6-1.6V168c0-22.4-1.6-44.8-2.4-67.2l-0.8-8.8h53.6l1.6,6.4c9.6,52.8,10.4,108,0.8,160.8l-0.8,7.2
		H220.153z"/>
	<path style="fill:#F4A23F;" d="M155.353,57.6l0.8-8.8c1.6-15.2,4-26.4,4.8-33.6l0.8-6.4h47.2l0.8,6.4c0.8,7.2,3.2,18.4,4.8,33.6
		l0.8,8.8L155.353,57.6z"/>
</g>
<path style="fill:#E28539;" d="M265.753,57.6l-1.6-5.6c-4.8-15.2-8.8-25.6-11.2-32l-4.8-11.2h33.6l2.4,3.2c8,11.2,14.4,22.4,20,34.4
	l5.6,11.2H265.753z"/>
<path style="fill:#F4A23F;" d="M216.153,57.6l-0.8-7.2c-1.6-15.2-3.2-26.4-4.8-32.8l-1.6-9.6h38.4l2.4,4.8
	c4.8,11.2,8.8,22.4,12.8,33.6l3.2,10.4L216.153,57.6z"/>
<path style="fill:#FBCF4C;" d="M222.553,216.8h-0.8c-11.2-0.8-20-10.4-20-21.6c0.8-11.2,10.4-20,21.6-20s20,10.4,20,21.6
	c-0.8,10.4-8.8,19.2-20,20H222.553L222.553,216.8z"/>
<path style="fill:#E28539;" d="M247.353,364.8l4-10.4c5.6-15.2,10.4-30.4,14.4-46.4l1.6-5.6h46.4l-4.8,11.2
	c-7.2,16.8-15.2,32.8-24.8,48l-2.4,3.2H247.353z"/>
<polygon style="fill:#FBCF4C;" points="50.553,301.6 34.553,266.4 336.953,266.4 320.153,301.6 "/>
<g>
	<polygon style="fill:#EDB248;" points="320.153,57.6 264.153,57.6 280.153,92 336.953,92 	"/>
	<polygon style="fill:#EDB248;" points="280.153,266.4 263.353,301.6 320.153,301.6 336.953,266.4 	"/>
</g>
<g>
	<path style="fill:#F4A23F;" d="M208.953,364.8l1.6-8.8c2.4-16,4-31.2,5.6-46.4l0.8-7.2h50.4l-2.4,10.4c-4.8,16-9.6,32-16,48
		l-2.4,4.8L208.953,364.8z"/>
	<path style="fill:#F4A23F;" d="M96.153,266.4l-0.8-6.4c-8.8-53.6-8.8-108,0.8-161.6l0.8-6.4h54.4l-0.8,8.8
		c-3.2,52.8-4,105.6,0,158.4l0.8,8h-55.2V266.4z"/>
</g>
<path style="fill:#E28539;" d="M275.353,266.4l1.6-9.6c8-52,8-104.8-0.8-156l-2.4-8.8h48.8l1.6,5.6c15.2,52.8,16,109.6,1.6,163.2
	l-0.8,5.6H275.353z"/>
<g>
	<path style="fill:#F4A23F;" d="M89.753,364.8l-2.4-4c-9.6-15.2-17.6-31.2-24.8-48l-4.8-11.2h45.6l1.6,5.6
		c4,15.2,8.8,31.2,14.4,46.4l4,10.4L89.753,364.8z"/>
	<path style="fill:#F4A23F;" d="M161.753,364.8l-0.8-7.2c-2.4-14.4-4-30.4-5.6-47.2l-1.6-8.8h62.4l-0.8,8.8
		c-1.6,17.6-4,32.8-5.6,47.2l-0.8,7.2L161.753,364.8L161.753,364.8z"/>
	<path style="fill:#F4A23F;" d="M46.553,266.4l-1.6-6.4c-14.4-53.6-13.6-109.6,1.6-163.2l1.6-5.6h49.6l-1.6,9.6
		c-8.8,51.2-9.6,104-0.8,156l1.6,9.6L46.553,266.4L46.553,266.4z"/>
	<path style="fill:#F4A23F;" d="M124.153,364.8l-2.4-5.6c-5.6-15.2-11.2-31.2-16-48l-3.2-10.4h51.2l0.8,7.2
		c1.6,15.2,3.2,31.2,5.6,46.4l1.6,8.8L124.153,364.8z"/>
</g>
<path style="fill:#4A2328;" d="M344.153,96c1.6-2.4,1.6-5.6,0-8l-16.8-34.4c-1.6-2.4-4-4.8-7.2-4.8h-5.6c-7.2-16-16.8-32-27.2-46.4
	c-1.6-1.6-4-2.4-6.4-2.4h-191.2c-2.4,0-4.8,0.8-6.4,3.2c-10.4,14.4-20,29.6-27.2,46.4h-4.8c-3.2,0-5.6,1.6-7.2,4.8l-16.8,34.4
	c-1.6,4,0,8.8,4,10.4c0.8,0.8,2.4,0.8,3.2,0.8h3.2c-14.4,52-15.2,106.4-1.6,158.4h-1.6c-4.8,0-8,4-8,8c0,0.8,0,2.4,0.8,3.2
	l16.8,34.4c1.6,2.4,4,4.8,7.2,4.8h1.6c8.8,20.8,18.4,40,30.4,59.2c1.6,2.4,4,4,7.2,4h192c2.4,0,5.6-1.6,6.4-4
	c12-19.2,21.6-38.4,30.4-59.2h1.6c3.2,0,5.6-1.6,7.2-4.8l16.8-34.4c1.6-4,0-8.8-4-10.4c-1.6-0.8-2.4-0.8-4-0.8h-1.6
	c12.8-52,12.8-106.4-1.6-158.4h4C340.153,100,342.553,98.4,344.153,96z M277.753,16c7.2,10.4,13.6,21.6,20,32.8h-25.6
	c-4-14.4-8.8-25.6-12-32.8L277.753,16z M242.553,16c4.8,10.4,8.8,21.6,12,32.8h-31.2c-1.6-14.4-3.2-25.6-4.8-32.8L242.553,16z
	 M168.953,16h33.6c0.8,6.4,2.4,17.6,4.8,32.8h-43.2C165.753,34.4,168.153,23.2,168.953,16L168.953,16z M128.953,16h23.2
	c-0.8,7.2-3.2,18.4-4.8,32.8h-31.2C120.153,38.4,124.153,27.2,128.953,16L128.953,16z M93.753,16h18.4c-3.2,7.2-7.2,18.4-12,32.8
	h-26.4C79.353,37.6,86.553,27.2,93.753,16L93.753,16z M56.153,65.6h259.2l8.8,18.4h-276.8L56.153,65.6z M213.753,223.2
	c0,12-0.8,24-1.6,35.2h-52.8c-3.2-52.8-3.2-105.6,0-158.4h52c1.6,22.4,2.4,44.8,2.4,68c-15.2,4-24,20-20,36
	C196.953,212.8,204.153,220.8,213.753,223.2L213.753,223.2z M209.753,196c0-7.2,5.6-12.8,12.8-12.8c7.2,0,12.8,5.6,12.8,12.8
	s-5.6,12.8-12.8,12.8h-0.8h-0.8C215.353,208,209.753,202.4,209.753,196z M229.753,224c15.2-4,24.8-19.2,21.6-35.2
	c-2.4-10.4-10.4-18.4-20.8-20.8c0-23.2-1.6-45.6-2.4-68h39.2c9.6,52,9.6,106.4,0.8,158.4h-40
	C228.953,247.2,229.753,235.2,229.753,224L229.753,224z M143.353,258.4h-40c-8.8-52.8-8-106.4,0.8-158.4h39.2
	C140.153,152.8,140.153,205.6,143.353,258.4z M54.553,100h33.6c-9.6,52-9.6,105.6-0.8,158.4h-34.4
	C38.553,206.4,39.353,152,54.553,100z M94.553,356c-8.8-15.2-16.8-30.4-24-47.2h27.2c4,16,8.8,31.2,15.2,47.2H94.553z M129.753,356
	c-5.6-15.2-11.2-31.2-15.2-47.2h32.8c1.6,16,3.2,31.2,5.6,47.2H129.753z M202.553,356h-33.6c-2.4-15.2-4-31.2-5.6-47.2h44.8
	C206.553,324.8,204.153,340.8,202.553,356L202.553,356z M241.753,356h-24c2.4-15.2,4-31.2,5.6-47.2h32.8
	C252.953,324.8,248.153,340.8,241.753,356L241.753,356z M276.953,356h-18.4c5.6-15.2,10.4-31.2,15.2-47.2h28
	C294.553,325.6,286.553,340.8,276.953,356L276.953,356z M315.353,292.8h-259.2l-8.8-18.4h277.6L315.353,292.8z M318.553,258.4h-34.4
	c8.8-52.8,8-106.4-0.8-158.4h33.6C332.153,151.2,332.153,206.4,318.553,258.4z"/>
<g>
</g>
<g>
</g>
<g>
</g>
<g>
</g>
<g>
</g>
<g>
</g>
<g>
</g>
<g>
</g>
<g>
</g>
<g>
</g>
<g>
</g>
<g>
</g>
<g>
</g>
<g>
</g>
<g>
</g>
</svg>
